<?xml version="1.0" standalone="no"?><!DOCTYPE svg PUBLIC "-//W3C//DTD SVG 1.1//EN" "http://www.w3.org/Graphics/SVG/1.1/DTD/svg11.dtd"><svg t="1726976426035" class="icon" viewBox="0 0 1024 1024" version="1.1" xmlns="http://www.w3.org/2000/svg" p-id="1315" width="24" height="24" xmlns:xlink="http://www.w3.org/1999/xlink"><path d="M504.149333 89.429333A422.570667 422.570667 0 0 0 81.578667 512c0 66.56 2.048 192.170667 4.096 289.109333a136.533333 136.533333 0 0 0 136.533333 133.461334h267.946667a431.445333 431.445333 0 0 0 436.565333-414.72A422.570667 422.570667 0 0 0 504.149333 89.429333z m30.037334 580.266667H286.72a34.133333 34.133333 0 1 1 0-68.266667h247.466667a34.133333 34.133333 0 0 1 0 68.266667zM662.869333 443.733333H286.72a34.133333 34.133333 0 1 1 0-68.266666h375.466667a34.133333 34.133333 0 0 1 0 68.266666z" fill="#1296db" p-id="1316"></path></svg>