<?xml version="1.0" standalone="no"?><!DOCTYPE svg PUBLIC "-//W3C//DTD SVG 1.1//EN" "http://www.w3.org/Graphics/SVG/1.1/DTD/svg11.dtd"><svg t="1735034094503" class="icon" viewBox="0 0 1024 1024" version="1.1" xmlns="http://www.w3.org/2000/svg" p-id="2256" width="32" height="32" xmlns:xlink="http://www.w3.org/1999/xlink"><path d="M938.172993 144.200931c-12.715112-11.125723-29.475942-17.194299-46.959221-17.194299h-4.768167c-0.866939 0-11.992663 0.57796-29.331452 0.57796-28.609002 0-84.671088-1.733879-137.843376-14.015522-68.488218-15.60491-147.524199-88.283336-170.498095-102.732327-11.559193-7.080006-24.996755-10.836743-38.289826-10.836743s-26.730634 3.612248-38.145337 10.836743c-2.745308 1.733879-85.682517 84.093128-166.452377 102.732327-52.883307 11.992663-110.101312 14.015521-138.710315 14.015522-17.338789 0-28.464512-0.57796-29.475942-0.57796h-4.479187c-17.483279 0-34.244109 6.068576-47.103711 17.194299-14.015521 11.992663-21.962466 29.042472-21.962466 46.814731V351.110484c0 592.553125 416.564414 668.843799 434.192182 671.878087 4.045718 0.57796 8.091435 0.866939 12.137153 0.866939 4.045718 0 8.091435 0 12.137152-0.866939 17.627769-3.034288 437.226471-79.324961 437.226471-671.878087V190.871173c0-17.772259-7.946945-34.677579-21.962466-46.670242h0.28898zM784.435727 373.50642L495.600395 642.546635c-1.733879 2.745308-4.045718 5.635107-6.646536 8.091435-8.380415 7.946945-19.650628 11.703683-30.631861 11.559193-10.981233 0-22.106956-3.612248-30.631861-11.559193-2.600818-2.311839-5.057147-5.346127-6.646536-8.091435l-154.315225-143.767462c-16.47185-15.171441-16.47185-40.023705 0-55.339636 16.47185-15.171441 43.057994-15.171441 59.385353 0l132.352759 123.394384 266.872866-248.522647c16.47185-15.315931 43.057994-15.315931 59.385353 0 16.47185 15.171441 16.47185 40.023705 0 55.339636l-0.28898-0.14449z m0 0" p-id="2257" fill="#707070"></path></svg>