<?xml version="1.0" standalone="no"?><!DOCTYPE svg PUBLIC "-//W3C//DTD SVG 1.1//EN" "http://www.w3.org/Graphics/SVG/1.1/DTD/svg11.dtd"><svg t="1726985045363" class="icon" viewBox="0 0 1024 1024" version="1.1" xmlns="http://www.w3.org/2000/svg" p-id="1135" xmlns:xlink="http://www.w3.org/1999/xlink" width="24" height="24"><path d="M512 0C229.2 0 0 229.2 0 512s229.2 512 512 512 512-229.2 512-512S794.8 0 512 0z m0 952C269 952 72 755 72 512S269 72 512 72s440 197 440 440-197 440-440 440z" p-id="1136" fill="#707070"></path><path d="M738.2 285.7l-216.9 98.6a128.14 128.14 0 0 0-137 137l-98.6 216.9 216.9-98.6a128.14 128.14 0 0 0 137-137zM551.6 551.6a56 56 0 1 1 0-79.2 55.95 55.95 0 0 1 0 79.2z" p-id="1137" fill="#707070"></path></svg>